<svg version="1.1" id="Layer_1" xmlns="http://www.w3.org/2000/svg" xmlns:xlink="http://www.w3.org/1999/xlink" x="0px" y="0px"
	 viewBox="0 0 216 144" style="enable-background:new 0 0 216 144;" xml:space="preserve">
<svg:style type="text/css">
	.st0{fill:none;stroke:currentColor;stroke-width:2;stroke-miterlimit:10;}
</svg:style>
<rect x="36" y="27" class="st0" width="135" height="90"/>
<polyline class="st0" points="72,54 45,54 45,108 108,108 108,54 81,54 "/>
<path class="st0" d="M81,72h-9V40.5c0-2.49,2.01-4.5,4.5-4.5h0c2.49,0,4.5,2.01,4.5,4.5V72z"/>
<circle class="st0" cx="94.5" cy="40.5" r="4.5"/>
<circle class="st0" cx="58.5" cy="40.5" r="4.5"/>
<line class="st0" x1="117" y1="54" x2="162" y2="54"/>
<line class="st0" x1="117" y1="63" x2="162" y2="63"/>
<line class="st0" x1="117" y1="72" x2="162" y2="72"/>
<line class="st0" x1="117" y1="81" x2="162" y2="81"/>
<line class="st0" x1="117" y1="90" x2="162" y2="90"/>
<line class="st0" x1="117" y1="99" x2="162" y2="99"/>
<line class="st0" x1="117" y1="108" x2="162" y2="108"/>
</svg>
