<?xml version="1.0" encoding="utf-8"?>
<!-- Generator: Adobe Illustrator 26.0.2, SVG Export Plug-In . SVG Version: 6.00 Build 0)  -->
<svg version="1.1" id="Layer_1" xmlns="http://www.w3.org/2000/svg" xmlns:xlink="http://www.w3.org/1999/xlink" x="0px" y="0px"
	 viewBox="0 0 301.3 106.4" style="enable-background:new 0 0 301.3 106.4;" xml:space="preserve">
<style type="text/css">
	.st0{fill:#FFFFFF;}
</style>
<g>
	<path d="M61.7,77.2V39.7H68v4.5l0,0c0.6-1.8,3.2-3.5,4.2-4s2.3-0.8,3.9-0.8c2.1,0,4,0.5,5.7,1.6s3.1,2.6,4.1,4.7s1.5,4.7,1.5,7.7
		s-0.5,5.5-1.5,7.6s-2.3,3.7-4,4.8s-3.6,1.7-5.8,1.7c-1.6,0-2.9-0.3-3.9-0.8s-3.5-2.2-4.2-4l0,0v14.5C68.1,77.2,61.7,77.2,61.7,77.2
		z M68,53.4c0,1.8,0.2,3.3,0.8,4.6s1.2,2.4,2.2,3.1c0.9,0.7,2.1,1.1,3.5,1.1s2.6-0.4,3.6-1.2s1.7-1.8,2.2-3.1s0.7-2.8,0.7-4.5
		s-0.2-3.2-0.7-4.5s-1.2-2.3-2.2-3.1s-2.2-1.1-3.6-1.1S72,45.1,71,45.8c-1,0.7-1.7,1.7-2.2,3S68,51.6,68,53.4z"/>
	<path d="M105,67.5c-2.7,0-5.1-0.6-7.1-1.7s-3.5-2.8-4.6-4.9c-1.1-2.1-1.6-4.6-1.6-7.4c0-2.8,0.5-5.3,1.6-7.4c1.1-2.1,2.6-3.8,4.5-5
		s4.2-1.8,6.8-1.8c1.7,0,3.3,0.3,4.8,0.8s2.8,1.4,4,2.5s2.1,2.5,2.7,4.3c0.7,1.7,1,3.8,1,6.2v2H94.8v-4.3H111c0-1.2-0.3-2.3-0.8-3.3
		s-1.2-1.7-2.2-2.3c-0.9-0.6-2-0.8-3.2-0.8c-1.3,0-2.5,0.3-3.5,1c-1,0.6-1.8,1.5-2.3,2.5c-0.6,1-0.8,2.2-0.8,3.4V55
		c0,1.6,0.3,2.9,0.9,4.1s1.4,2,2.4,2.6s2.3,0.9,3.7,0.9c0.9,0,1.8-0.1,2.5-0.4s1.4-0.7,2-1.2s1-1.2,1.3-1.9l6,0.7
		c-0.4,1.6-1.1,3-2.2,4.2s-2.4,2.1-4.1,2.7C109,67.2,107.1,67.5,105,67.5z"/>
	<path d="M129,51v16h-6.4V39.7h6.1v4.6l0,0c0.6-1.5,1.9-2.7,3.3-3.6c1.4-0.9,3.1-1.4,5.1-1.4c1.9,0,3.5,0.4,4.9,1.2s2.5,2,3.3,3.5
		s1.2,3.4,1.1,5.6V67H140V50.6c0-1.8-0.5-3.2-1.4-4.3c-0.9-1-2.2-1.5-3.9-1.5c-1.1,0-2.1,0.2-3,0.7s-1.6,1.2-2,2.1
		C129.3,48.6,129,49.7,129,51z"/>
	<path d="M171.9,29.1V67h-6.4V29.1H171.9z"/>
	<path d="M190.6,67.5c-2.7,0-5.1-0.6-7.1-1.7s-3.5-2.8-4.6-4.9c-1.1-2.1-1.6-4.6-1.6-7.4c0-2.8,0.5-5.3,1.6-7.4
		c1.1-2.1,2.6-3.8,4.5-5s4.2-1.8,6.8-1.8c1.7,0,3.3,0.3,4.8,0.8s2.8,1.4,4,2.5s2.1,2.5,2.7,4.3c0.7,1.7,1,3.8,1,6.2v2h-22.4v-4.3
		h16.2c0-1.2-0.3-2.3-0.8-3.3s-1.2-1.7-2.2-2.3c-0.9-0.6-2-0.8-3.2-0.8c-1.3,0-2.5,0.3-3.5,1c-1,0.6-1.8,1.5-2.3,2.5
		c-0.6,1-0.8,2.2-0.8,3.4V55c0,1.6,0.3,2.9,0.9,4.1s1.4,2,2.4,2.6s2.3,0.9,3.7,0.9c0.9,0,1.8-0.1,2.5-0.4s1.4-0.7,2-1.2
		s1-1.2,1.3-1.9l6,0.7c-0.4,1.6-1.1,3-2.2,4.2c-1.1,1.2-2.4,2.1-4.1,2.7C194.6,67.2,192.7,67.5,190.6,67.5z"/>
	<rect x="205.7" y="50.1" width="19" height="5"/>
	<path d="M210,40.2h6.4v25.6c0,0.9,0.1,1.5,0.4,2c0.3,0.5,0.6,0.8,1.1,0.9c0.4,0.2,0.9,0.2,1.5,0.2c0.4,0,0.8,0,1.1-0.1
		c0.3-0.1,0.6-0.1,0.8-0.2l1.1,5c-0.3,0.1-0.8,0.2-1.5,0.4s-1.4,0.2-2.3,0.2c-1.6,0.1-3.1-0.2-4.4-0.7c-1.3-0.5-2.3-1.4-3.1-2.5
		s-1.1-2.6-1.1-4.3V40.2L210,40.2z"/>
	<rect x="224.7" y="50.1" width="12.7" height="5"/>
	<path d="M225.9,34.2h6.4v25.6c0,0.9,0.1,1.5,0.4,2c0.3,0.5,0.6,0.8,1.1,0.9c0.4,0.2,0.9,0.2,1.5,0.2c0.4,0,0.8,0,1.1-0.1
		s0.6-0.1,0.8-0.2l1.1,5c-0.3,0.1-0.8,0.2-1.5,0.4s-1.4,0.2-2.3,0.2c-1.6,0.1-3.1-0.2-4.4-0.7c-1.3-0.5-2.3-1.4-3.1-2.5
		s-1.1-2.6-1.1-4.3V34.2L225.9,34.2z"/>
	<path d="M254.9,67.5c-2.7,0-5.1-0.6-7.1-1.7s-3.5-2.8-4.6-4.9c-1.1-2.1-1.6-4.6-1.6-7.4c0-2.8,0.5-5.3,1.6-7.4
		c1.1-2.1,2.6-3.8,4.5-5s4.2-1.8,6.8-1.8c1.7,0,3.3,0.3,4.8,0.8s2.8,1.4,4,2.5s2.1,2.5,2.7,4.3c0.7,1.7,1,3.8,1,6.2v2h-22.4v-4.3
		h16.2c0-1.2-0.3-2.3-0.8-3.3s-1.2-1.7-2.2-2.3c-0.9-0.6-2-0.8-3.2-0.8c-1.3,0-2.5,0.3-3.5,1c-1,0.6-1.8,1.5-2.3,2.5
		c-0.6,1-0.8,2.2-0.8,3.4V55c0,1.6,0.3,2.9,0.9,4.1s1.4,2,2.4,2.6s2.3,0.9,3.7,0.9c0.9,0,1.8-0.1,2.5-0.4s1.4-0.7,2-1.2
		s1-1.2,1.3-1.9l6,0.7c-0.4,1.6-1.1,3-2.2,4.2s-2.4,2.1-4.1,2.7C258.9,67.2,257,67.5,254.9,67.5z"/>
	<path d="M272.5,67V39.7h6.2v4.5h0.3c0.5-1.6,1.4-2.8,2.6-3.6c1.2-0.9,2.6-1.3,4.2-1.3c0.4,0,0.8,0,1.2,0c0.4,0,0.8,0.1,1.1,0.1v5.9
		c-0.3-0.1-0.7-0.2-1.3-0.3c-0.6-0.1-1.1-0.1-1.7-0.1c-1.2,0-2.2,0.2-3.1,0.8s-1.7,1.2-2.2,2.1s-0.8,1.9-0.8,3.1v16L272.5,67
		L272.5,67z"/>
</g>
<path d="M54.7,46.1c-1.1-2.1-2.6-3.8-4.5-4.9c-1.9-1.1-4.3-1.8-6.9-1.8H23.5c-2.6,0-5,0.7-6.9,1.8c-1.9,1.1-3.4,2.8-4.5,4.9
	c-1.1,2.1-1.6,4.6-1.6,7.2c0,2.8,0.6,5.3,1.6,7.4c1,2.1,2.6,3.7,4.5,4.9c1.9,1.2,4.2,1.8,6.9,1.8h19.8c2.7,0,5-0.6,6.9-1.8
	c1.9-1.2,3.5-2.8,4.5-4.9c1-2.1,1.6-4.6,1.6-7.4C56.3,50.7,55.8,48.2,54.7,46.1z M49.1,57.9c-0.5,1.4-1.2,2.4-2.2,3.2
	s-2.2,1.2-3.6,1.2H23.5c-1.4,0-2.6-0.4-3.6-1.2s-1.7-1.8-2.2-3.2c-0.5-1.3-0.7-2.8-0.7-4.5c0-1.6,0.2-3.1,0.7-4.5
	c0.5-1.3,1.2-2.4,2.2-3.2c0.9-0.8,2.2-1.2,3.6-1.2h19.8c1.4,0,2.7,0.4,3.6,1.2c1,0.8,1.7,1.9,2.2,3.2c0.5,1.4,0.7,2.9,0.7,4.5
	C49.8,55.1,49.6,56.6,49.1,57.9z"/>
<rect x="201.6" y="-253.6" width="36" height="72"/>
<rect x="50.4" y="-253.6" width="36" height="72"/>
<rect x="-28.8" y="-174.4" width="36" height="72"/>
<rect x="-10.8" y="-156.4" transform="matrix(6.123234e-17 -1 1 6.123234e-17 127.6 -113.2)" width="36" height="72"/>
<rect x="151.2" y="-174.4" width="36" height="72"/>
<rect x="151.2" y="-196" transform="matrix(6.123234e-17 -1 1 6.123234e-17 325.6 12.8)" width="36" height="79.2"/>
<rect x="237.6" y="-174.4" width="36" height="72"/>
<rect x="237.6" y="-196" transform="matrix(6.123234e-17 -1 1 6.123234e-17 412 99.2)" width="36" height="79.2"/>
<rect x="244.8" y="-253.6" width="36" height="72"/>
<polygon points="280.8,-181.6 244.8,-181.6 194.4,-253.6 230.4,-253.6 "/>
<circle cx="86.4" cy="-224.8" r="28.8"/>
<rect x="381.6" y="-174.4" width="36" height="72"/>
<circle cx="417.6" cy="-145.6" r="28.8"/>
<circle cx="158.4" cy="-217.6" r="36"/>
<circle cx="7.2" cy="-217.6" r="36"/>
<circle cx="86.4" cy="-138.4" r="36"/>
<circle cx="338.4" cy="-138.4" r="36"/>
<polygon points="403.2,-174.4 381.6,-174.4 381.6,-153.8 417.6,-102.4 453.6,-102.4 "/>
<path class="st0" d="M158.4-224.8c-4,0-7.2,3.2-7.2,7.2h14.4C165.6-221.6,162.4-224.8,158.4-224.8z"/>
<path class="st0" d="M338.4-145.6c-4,0-7.2,3.2-7.2,7.2h14.4C345.6-142.4,342.4-145.6,338.4-145.6z"/>
<path class="st0" d="M86.4-145.6c-4,0-7.2,3.2-7.2,7.2h14.4C93.6-142.4,90.4-145.6,86.4-145.6z"/>
<path class="st0" d="M14.4-217.6c0-4-3.2-7.2-7.2-7.2S0-221.6,0-217.6h0c0,4,3.2,7.2,7.2,7.2S14.4-213.6,14.4-217.6L14.4-217.6z"/>
<path d="M-7.2-361.6v-32c0-2.2-1.8-4-4-4h-28c-2.2,0-4,1.8-4,4v32v32c0,2.2,1.8,4,4,4h32h32c2.2,0,4-1.8,4-4v-28c0-2.2-1.8-4-4-4
	H-7.2z"/>
<g>
	<path d="M136.8-397.6h-17.6c-2.2,0-4,1.8-4,4v28c0,2.2,1.8,4,4,4h17.6v32c0,2.2,1.8,4,4,4h28c2.2,0,4-1.8,4-4v-32h17.6
		c2.2,0,4-1.8,4-4v-28c0-2.2-1.8-4-4-4h-17.6H136.8z"/>
</g>
<path d="M72-476.8H40c-2.2,0-4,1.8-4,4v64c0,2.2,1.8,4,4,4h28c2.2,0,4-1.8,4-4v-10.4c15.9,0,28.8-12.9,28.8-28.8
	C100.8-463.9,87.9-476.8,72-476.8z"/>
<circle cx="144" cy="-440.8" r="36"/>
<circle cx="-7.2" cy="-440.8" r="36"/>
<circle cx="72" cy="-361.6" r="36"/>
<circle cx="324" cy="-361.6" r="36"/>
<path d="M423.4-348.2c5.4-5.3,8.8-12.8,8.6-21c-0.2-15.8-13.5-28.4-29.4-28.4l-31.4,0c-2.2,0-4,1.8-4,4v16.6l0,0v47.4
	c0,2.2,1.8,4,4,4h32l0,0h28.3c3.2,0,5.1-3.6,3.3-6.3L423.4-348.2z"/>
<path class="st0" d="M144-448c-3,0-5.6,1.8-6.6,4.4c-0.6,1.3,0.4,2.8,1.8,2.8h9.6c1.4,0,2.4-1.5,1.8-2.8
	C149.6-446.2,147-448,144-448z"/>
<path class="st0" d="M324-368.8c-3,0-5.6,1.8-6.6,4.4c-0.6,1.3,0.4,2.8,1.8,2.8h9.6c1.4,0,2.4-1.5,1.8-2.8
	C329.6-367,327-368.8,324-368.8z"/>
<path class="st0" d="M72-368.8c-3,0-5.6,1.8-6.6,4.4c-0.6,1.3,0.4,2.8,1.8,2.8h9.6c1.4,0,2.4-1.5,1.8-2.8
	C77.6-367,75-368.8,72-368.8z"/>
<path class="st0" d="M0-440.8c0-4-3.2-7.2-7.2-7.2s-7.2,3.2-7.2,7.2h0c0,4,3.2,7.2,7.2,7.2S0-436.8,0-440.8L0-440.8z"/>
<path d="M262.4-476.8h-28c-2.2,0-4,1.8-4,4v8l-4.9-8.1c-1.4-2.4-4-3.9-6.9-3.9h-9.9h-17.6c-2.2,0-4,1.8-4,4v64c0,2.2,1.8,4,4,4h28
	c2.2,0,4-1.8,4-4v-8l4.9,8.1c1.4,2.4,4,3.9,6.9,3.9h9.9h17.6c2.2,0,4-1.8,4-4v-64C266.4-475,264.6-476.8,262.4-476.8z"/>
<g>
	<path d="M223.2-397.6h-17.6c-2.2,0-4,1.8-4,4v28c0,2.2,1.8,4,4,4h17.6v32c0,2.2,1.8,4,4,4h28c2.2,0,4-1.8,4-4v-32h17.6
		c2.2,0,4-1.8,4-4v-28c0-2.2-1.8-4-4-4h-17.6H223.2z"/>
</g>
<path d="M-180-721.6v-32c0-2.2-1.8-4-4-4h-28c-2.2,0-4,1.8-4,4v32v32c0,2.2,1.8,4,4,4h32h32c2.2,0,4-1.8,4-4v-28c0-2.2-1.8-4-4-4
	H-180z"/>
<g>
	<path d="M-36-757.6h-17.6c-2.2,0-4,1.8-4,4v28c0,2.2,1.8,4,4,4H-36v32c0,2.2,1.8,4,4,4h28c2.2,0,4-1.8,4-4v-32h17.6
		c2.2,0,4-1.8,4-4v-28c0-2.2-1.8-4-4-4H0H-36z"/>
</g>
<path d="M-100.8-836.8h-32c-2.2,0-4,1.8-4,4v64c0,2.2,1.8,4,4,4h28c2.2,0,4-1.8,4-4v-10.4c15.9,0,28.8-12.9,28.8-28.8
	C-72-823.9-84.9-836.8-100.8-836.8z"/>
<path d="M250.6-708.2c5.4-5.3,8.8-12.8,8.6-21c-0.2-15.8-13.5-28.4-29.4-28.4l-31.4,0c-2.2,0-4,1.8-4,4v16.6l0,0v47.4
	c0,2.2,1.8,4,4,4h32l0,0h28.3c3.2,0,5.1-3.6,3.3-6.3L250.6-708.2z"/>
<path d="M-28.8-836.8c-19.9,0-36,16.1-36,36c0,19.9,16.1,36,36,36s36-16.1,36-36C7.2-820.7-8.9-836.8-28.8-836.8z M-24-800.8h-9.6
	c-1.4,0-2.4-1.5-1.8-2.8c1.1-2.6,3.7-4.4,6.6-4.4c3,0,5.6,1.8,6.6,4.4C-21.6-802.3-22.6-800.8-24-800.8z"/>
<path d="M151.2-757.6c-19.9,0-36,16.1-36,36c0,19.9,16.1,36,36,36s36-16.1,36-36C187.2-741.5,171.1-757.6,151.2-757.6z M156-721.6
	h-9.6c-1.4,0-2.4-1.5-1.8-2.8c1.1-2.6,3.7-4.4,6.6-4.4c3,0,5.6,1.8,6.6,4.4C158.4-723.1,157.4-721.6,156-721.6z"/>
<path d="M-100.8-757.6c-19.9,0-36,16.1-36,36c0,19.9,16.1,36,36,36s36-16.1,36-36C-64.8-741.5-80.9-757.6-100.8-757.6z M-96-721.6
	h-9.6c-1.4,0-2.4-1.5-1.8-2.8c1.1-2.6,3.7-4.4,6.6-4.4c3,0,5.6,1.8,6.6,4.4C-93.6-723.1-94.6-721.6-96-721.6z"/>
<path d="M-180-836.8c-19.9,0-36,16.1-36,36c0,19.9,16.1,36,36,36s36-16.1,36-36C-144-820.7-160.1-836.8-180-836.8z M-180-793.6
	c-4,0-7.2-3.2-7.2-7.2h0c0-4,3.2-7.2,7.2-7.2s7.2,3.2,7.2,7.2h0C-172.8-796.8-176-793.6-180-793.6z"/>
<path d="M89.6-836.8h-28c-2.2,0-4,1.8-4,4v8l-4.9-8.1c-1.4-2.4-4-3.9-6.9-3.9H36H18.4c-2.2,0-4,1.8-4,4v64c0,2.2,1.8,4,4,4h28
	c2.2,0,4-1.8,4-4v-8l4.9,8.1c1.4,2.4,4,3.9,6.9,3.9H72h17.6c2.2,0,4-1.8,4-4v-64C93.6-835,91.8-836.8,89.6-836.8z"/>
<g>
	<path d="M50.4-757.6H32.8c-2.2,0-4,1.8-4,4v28c0,2.2,1.8,4,4,4h17.6v32c0,2.2,1.8,4,4,4h28c2.2,0,4-1.8,4-4v-32H104
		c2.2,0,4-1.8,4-4v-28c0-2.2-1.8-4-4-4H86.4H50.4z"/>
</g>
<path d="M-237.6-1009.6v-32c0-2.2-1.8-4-4-4h-28c-2.2,0-4,1.8-4,4v32v32c0,2.2,1.8,4,4,4h32h32c2.2,0,4-1.8,4-4v-28c0-2.2-1.8-4-4-4
	H-237.6z"/>
<g>
	<path d="M-93.6-1045.6h-17.6c-2.2,0-4,1.8-4,4v28c0,2.2,1.8,4,4,4h17.6v32c0,2.2,1.8,4,4,4h28c2.2,0,4-1.8,4-4v-32H-40
		c2.2,0,4-1.8,4-4v-28c0-2.2-1.8-4-4-4h-17.6H-93.6z"/>
</g>
<path d="M-158.4-1124.8h-32c-2.2,0-4,1.8-4,4v64c0,2.2,1.8,4,4,4h28c2.2,0,4-1.8,4-4v-10.4c15.9,0,28.8-12.9,28.8-28.8
	C-129.6-1111.9-142.5-1124.8-158.4-1124.8z"/>
<path d="M193-996.2c5.4-5.3,8.8-12.8,8.6-21c-0.2-15.8-13.5-28.4-29.4-28.4l-31.4,0c-2.2,0-4,1.8-4,4v16.6h0v47.4c0,2.2,1.8,4,4,4
	h32l0,0h28.3c3.2,0,5.1-3.6,3.3-6.3L193-996.2z"/>
<path d="M-86.4-1124.8c-19.9,0-36,16.1-36,36s16.1,36,36,36s36-16.1,36-36S-66.5-1124.8-86.4-1124.8z M-81.6-1088.8h-9.6
	c-1.4,0-2.4-1.5-1.8-2.8c1.1-2.6,3.7-4.4,6.6-4.4c3,0,5.6,1.8,6.6,4.4C-79.2-1090.3-80.2-1088.8-81.6-1088.8z"/>
<path d="M119.1-1035.1c-14.1-14.1-36.9-14.1-50.9,0c-14.1,14.1-14.1,36.9,0,50.9s36.9,14.1,50.9,0
	C133.1-998.2,133.1-1021,119.1-1035.1z M97-1006.2l-6.8-6.8c-1-1-0.7-2.7,0.7-3.3c2.6-1.1,5.7-0.5,7.8,1.6c2.1,2.1,2.6,5.2,1.6,7.8
	C99.7-1005.5,98-1005.2,97-1006.2z"/>
<path d="M-183.9-1035.1c-14.1,14.1-14.1,36.9,0,50.9c14.1,14.1,36.9,14.1,50.9,0s14.1-36.9,0-50.9
	C-147-1049.1-169.8-1049.1-183.9-1035.1z M-155-1013l-6.8,6.8c-1,1-2.7,0.7-3.3-0.7c-1.1-2.6-0.5-5.7,1.6-7.8
	c2.1-2.1,5.2-2.6,7.8-1.6C-154.3-1015.7-154-1014-155-1013z"/>
<path d="M-237.6-1124.8c-19.9,0-36,16.1-36,36s16.1,36,36,36s36-16.1,36-36S-217.7-1124.8-237.6-1124.8z M-237.6-1081.6
	c-4,0-7.2-3.2-7.2-7.2h0c0-4,3.2-7.2,7.2-7.2s7.2,3.2,7.2,7.2h0C-230.4-1084.8-233.6-1081.6-237.6-1081.6z"/>
<path d="M32-1124.8H4c-2.2,0-4,1.8-4,4v8l-4.9-8.1c-1.4-2.4-4-3.9-6.9-3.9h-9.9h-17.6c-2.2,0-4,1.8-4,4v64c0,2.2,1.8,4,4,4h28
	c2.2,0,4-1.8,4-4v-8l4.9,8.1c1.4,2.4,4,3.9,6.9,3.9h9.9H32c2.2,0,4-1.8,4-4v-64C36-1123,34.2-1124.8,32-1124.8z"/>
<g>
	<path d="M-7.2-1045.6h-17.6c-2.2,0-4,1.8-4,4v28c0,2.2,1.8,4,4,4h17.6v32c0,2.2,1.8,4,4,4h28c2.2,0,4-1.8,4-4v-32h17.6
		c2.2,0,4-1.8,4-4v-28c0-2.2-1.8-4-4-4H28.8H-7.2z"/>
</g>
</svg>
