<svg version="1.1" id="Layer_1" xmlns="http://www.w3.org/2000/svg" xmlns:xlink="http://www.w3.org/1999/xlink" x="0px" y="0px"
	 viewBox="0 0 301.3 106.4" style="enable-background:new 0 0 301.3 106.4;" xml:space="preserve">
<g>
	<path d="M61.7,77.2V39.7H68v4.5h0.4c0.3-0.7,0.8-1.4,1.4-2.1s1.4-1.4,2.4-1.9c1-0.5,2.3-0.8,3.9-0.8c2.1,0,4,0.5,5.7,1.6
		s3.1,2.6,4.1,4.7s1.5,4.7,1.5,7.7c0,3-0.5,5.5-1.5,7.6c-1,2.1-2.3,3.7-4,4.8s-3.6,1.7-5.8,1.7c-1.6,0-2.9-0.3-3.9-0.8
		c-1-0.5-1.9-1.2-2.5-1.9s-1.1-1.4-1.4-2.1h-0.3v14.5C68.1,77.2,61.7,77.2,61.7,77.2z M68,53.4c0,1.8,0.2,3.3,0.8,4.6
		s1.2,2.4,2.2,3.1c0.9,0.7,2.1,1.1,3.5,1.1c1.4,0,2.6-0.4,3.6-1.2c1-0.8,1.7-1.8,2.2-3.1c0.5-1.3,0.7-2.8,0.7-4.5
		c0-1.7-0.2-3.2-0.7-4.5c-0.5-1.3-1.2-2.3-2.2-3.1s-2.2-1.1-3.6-1.1c-1.4,0-2.5,0.4-3.5,1.1c-1,0.7-1.7,1.7-2.2,3S68,51.6,68,53.4z"
		/>
	<path d="M105,67.5c-2.7,0-5.1-0.6-7.1-1.7c-2-1.1-3.5-2.8-4.6-4.9c-1.1-2.1-1.6-4.6-1.6-7.4c0-2.8,0.5-5.3,1.6-7.4
		c1.1-2.1,2.6-3.8,4.5-5c1.9-1.2,4.2-1.8,6.8-1.8c1.7,0,3.3,0.3,4.8,0.8s2.8,1.4,4,2.5c1.2,1.1,2.1,2.5,2.7,4.3c0.7,1.7,1,3.8,1,6.2
		v2H94.8v-4.3H111c0-1.2-0.3-2.3-0.8-3.3c-0.5-1-1.2-1.7-2.2-2.3c-0.9-0.6-2-0.8-3.2-0.8c-1.3,0-2.5,0.3-3.5,1
		c-1,0.6-1.8,1.5-2.3,2.5c-0.6,1-0.8,2.2-0.8,3.4V55c0,1.6,0.3,2.9,0.9,4.1s1.4,2,2.4,2.6s2.3,0.9,3.7,0.9c0.9,0,1.8-0.1,2.5-0.4
		s1.4-0.7,2-1.2s1-1.2,1.3-1.9l6,0.7c-0.4,1.6-1.1,3-2.2,4.2c-1.1,1.2-2.4,2.1-4.1,2.7C109,67.2,107.1,67.5,105,67.5z"/>
	<path d="M129,51v16h-6.4V39.7h6.1v4.6h0.3c0.6-1.5,1.6-2.7,3-3.6c1.4-0.9,3.1-1.4,5.1-1.4c1.9,0,3.5,0.4,4.9,1.2
		c1.4,0.8,2.5,2,3.3,3.5c0.8,1.5,1.2,3.4,1.1,5.6V67h-6.4V50.6c0-1.8-0.5-3.2-1.4-4.3c-0.9-1-2.2-1.5-3.9-1.5c-1.1,0-2.1,0.2-3,0.7
		s-1.6,1.2-2,2.1C129.3,48.6,129,49.7,129,51z"/>
	<path d="M171.9,29.1V67h-6.4V29.1H171.9z"/>
	<path d="M190.6,67.5c-2.7,0-5.1-0.6-7.1-1.7c-2-1.1-3.5-2.8-4.6-4.9c-1.1-2.1-1.6-4.6-1.6-7.4c0-2.8,0.5-5.3,1.6-7.4
		c1.1-2.1,2.6-3.8,4.5-5c1.9-1.2,4.2-1.8,6.8-1.8c1.7,0,3.3,0.3,4.8,0.8s2.8,1.4,4,2.5c1.2,1.1,2.1,2.5,2.7,4.3c0.7,1.7,1,3.8,1,6.2
		v2h-22.4v-4.3h16.2c0-1.2-0.3-2.3-0.8-3.3s-1.2-1.7-2.2-2.3c-0.9-0.6-2-0.8-3.2-0.8c-1.3,0-2.5,0.3-3.5,1c-1,0.6-1.8,1.5-2.3,2.5
		c-0.6,1-0.8,2.2-0.8,3.4V55c0,1.6,0.3,2.9,0.9,4.1s1.4,2,2.4,2.6s2.3,0.9,3.7,0.9c0.9,0,1.8-0.1,2.5-0.4s1.4-0.7,2-1.2
		s1-1.2,1.3-1.9l6,0.7c-0.4,1.6-1.1,3-2.2,4.2c-1.1,1.2-2.4,2.1-4.1,2.7C194.6,67.2,192.7,67.5,190.6,67.5z"/>
	<path d="M225.1,39.7v5h-19v-5H225.1z M210,33.2h6.4v25.6c0,0.9,0.1,1.5,0.4,2c0.3,0.5,0.6,0.8,1.1,0.9c0.4,0.2,0.9,0.2,1.5,0.2
		c0.4,0,0.8,0,1.1-0.1s0.6-0.1,0.8-0.2l1.1,5c-0.3,0.1-0.8,0.2-1.5,0.4s-1.4,0.2-2.3,0.2c-1.6,0.1-3.1-0.2-4.4-0.7
		c-1.3-0.5-2.3-1.4-3.1-2.5c-0.8-1.1-1.1-2.6-1.1-4.3L210,33.2L210,33.2z"/>
	<path d="M240.8,39.7v5h-15.7v-5H240.8z M228.9,33.2h6.4v25.6c0,0.9,0.1,1.5,0.4,2c0.3,0.5,0.6,0.8,1.1,0.9c0.4,0.2,0.9,0.2,1.5,0.2
		c0.4,0,0.8,0,1.1-0.1s0.6-0.1,0.8-0.2l1.1,5c-0.3,0.1-0.8,0.2-1.5,0.4s-1.4,0.2-2.3,0.2c-1.6,0.1-3.1-0.2-4.4-0.7
		c-1.3-0.5-2.3-1.4-3.1-2.5c-0.8-1.1-1.1-2.6-1.1-4.3L228.9,33.2L228.9,33.2z"/>
	<path d="M257.9,67.5c-2.7,0-5.1-0.6-7.1-1.7c-2-1.1-3.5-2.8-4.6-4.9c-1.1-2.1-1.6-4.6-1.6-7.4c0-2.8,0.5-5.3,1.6-7.4
		c1.1-2.1,2.6-3.8,4.5-5c1.9-1.2,4.2-1.8,6.8-1.8c1.7,0,3.3,0.3,4.8,0.8s2.8,1.4,4,2.5c1.2,1.1,2.1,2.5,2.7,4.3c0.7,1.7,1,3.8,1,6.2
		v2h-22.4v-4.3h16.2c0-1.2-0.3-2.3-0.8-3.3s-1.2-1.7-2.2-2.3c-0.9-0.6-2-0.8-3.2-0.8c-1.3,0-2.5,0.3-3.5,1c-1,0.6-1.8,1.5-2.3,2.5
		c-0.6,1-0.8,2.2-0.8,3.4V55c0,1.6,0.3,2.9,0.9,4.1s1.4,2,2.4,2.6s2.3,0.9,3.7,0.9c0.9,0,1.8-0.1,2.5-0.4s1.4-0.7,2-1.2
		s1-1.2,1.3-1.9l6,0.7c-0.4,1.6-1.1,3-2.2,4.2c-1.1,1.2-2.4,2.1-4.1,2.7C261.9,67.2,260,67.5,257.9,67.5z"/>
	<path d="M275.5,67V39.7h6.2v4.5h0.3c0.5-1.6,1.4-2.8,2.6-3.6c1.2-0.9,2.6-1.3,4.2-1.3c0.4,0,0.8,0,1.2,0c0.4,0,0.8,0.1,1.1,0.1v5.9
		c-0.3-0.1-0.7-0.2-1.3-0.3c-0.6-0.1-1.1-0.1-1.7-0.1c-1.2,0-2.2,0.2-3.1,0.8s-1.7,1.2-2.2,2.1s-0.8,1.9-0.8,3.1v16L275.5,67
		L275.5,67z"/>
	<path d="M54.7,46.1c-1.1-2.1-2.6-3.8-4.5-4.9s-4.3-1.8-6.9-1.8l0,5.1c1.4,0,2.7,0.4,3.6,1.2c1,0.8,1.7,1.9,2.2,3.2
		c0.5,1.4,0.7,2.9,0.7,4.5c0,1.7-0.2,3.2-0.7,4.5c-0.5,1.4-1.2,2.4-2.2,3.2s-2.2,1.2-3.6,1.2l0,5.1c2.7,0,5-0.6,6.9-1.8
		s3.5-2.8,4.5-4.9s1.6-4.6,1.6-7.4C56.3,50.7,55.8,48.2,54.7,46.1z"/>
	<path d="M12,60.8c1.1,2.1,2.6,3.8,4.5,4.9s4.3,1.8,6.9,1.8l0-5.1c-1.4,0-2.6-0.4-3.6-1.2c-1-0.8-1.7-1.9-2.2-3.2
		c-0.5-1.3-0.7-2.9-0.7-4.5c0-1.7,0.2-3.2,0.7-4.5c0.5-1.3,1.2-2.4,2.2-3.2s2.2-1.2,3.6-1.2l0-5.2c-2.7,0-5,0.6-6.9,1.8
		c-2,1.2-3.5,2.8-4.5,4.9s-1.6,4.6-1.6,7.4C10.4,56.2,10.9,58.7,12,60.8z"/>
	<rect x="23.4" y="39.3" width="19.8" height="5.1"/>
	<rect x="23.4" y="62.4" width="19.8" height="5.1"/>
</g>
</svg>
