<svg version="1.1" id="Layer_1" xmlns="http://www.w3.org/2000/svg" xmlns:xlink="http://www.w3.org/1999/xlink" x="0px" y="0px" viewBox="0 0 136.9 56.2" xml:space="preserve"><g><path d="M32.7,16.8c0.1,0.1,0.2,0.3,0.2,0.6v2c0,0.3-0.1,0.6-0.2,0.7c-0.1,0.1-0.4,0.2-0.7,0.2c-0.5,0-0.9,0-1.2,0
		c-0.4,0-0.7,0.1-1,0.2c-0.7,0.2-1,0.6-0.9,1c0.1,0.3,0.2,0.7,0.4,1.1c0.1,0.4,0.2,1,0.2,1.6c0,1.3-0.4,2.5-1.1,3.6s-1.8,2-3.3,2.6
		s-3.3,1-5.5,1c-1.4,0-2.5,0.1-3.3,0.2c-0.8,0.2-1.4,0.4-1.7,0.7c-0.4,0.3-0.5,0.6-0.5,0.9c0,0.4,0.3,0.8,0.9,0.9
		c0.6,0.2,1.5,0.3,2.8,0.4l5.9,0.4c2.7,0.1,4.7,0.8,6,1.9c1.3,1.1,1.9,2.6,1.9,4.3c0,2.2-1,4-3,5.3s-4.9,2-8.7,2c-4-0.2-7-0.7-9-1.7
		s-3-2.5-3-4.5c0-1,0.4-1.9,1.1-2.7s1.7-1.4,3-2c0.4-0.1,0.4-0.3,0-0.5c-0.6-0.3-1.1-0.7-1.5-1.1c-0.4-0.5-0.6-1-0.6-1.6
		c0-0.5,0.2-0.9,0.5-1.3c0.3-0.4,0.7-0.8,1.3-1.2c0.6-0.4,1.2-0.7,2-1c0.1-0.1,0.2-0.1,0.3-0.2c0-0.1-0.1-0.2-0.3-0.3
		c-1.3-0.6-2.3-1.5-2.9-2.4c-0.7-1-1-2.1-1-3.5c0-2.2,0.9-4,2.7-5.3c1.8-1.3,4.3-2,7.7-2c1.6,0,2.9,0.2,4,0.5c1.1,0.3,2,0.8,2.8,1.5
		c0.2,0.1,0.4,0.2,0.5,0.2c0.2,0,0.3-0.1,0.5-0.3c0.4-0.4,0.8-0.7,1.2-1c0.5-0.3,1-0.6,1.5-0.8c0.5-0.2,1-0.3,1.5-0.3
		C32.3,16.7,32.5,16.7,32.7,16.8z M15.9,38.2c-0.5,0-1.1,0.1-1.7,0.4c-0.6,0.3-1.2,0.7-1.6,1.2c-0.5,0.5-0.7,1.1-0.7,1.8
		c0,0.8,0.3,1.5,0.9,2.1c0.6,0.6,1.5,1.1,2.7,1.4c1.2,0.3,2.8,0.5,4.7,0.5c2.3,0,4-0.3,5.2-1s1.8-1.6,1.8-3c0-0.9-0.3-1.6-1-2.2
		c-0.6-0.6-1.7-0.9-3.2-1L15.9,38.2z M23.8,27.5c0.9-0.8,1.4-1.9,1.4-3.3s-0.5-2.6-1.4-3.4s-2.3-1.3-4.2-1.3c-1.8,0-3.2,0.4-4.2,1.3
		c-1,0.8-1.5,2-1.5,3.4s0.5,2.5,1.5,3.3s2.4,1.2,4.2,1.2C21.5,28.7,22.9,28.3,23.8,27.5z"></path><path d="M41.8,12.6c0,0.6-0.3,0.9-0.9,0.9h-3.3c-0.3,0-0.5-0.1-0.6-0.2c-0.1-0.2-0.1-0.4-0.1-0.6v-4c0-0.6,0.2-0.8,0.7-0.8h3.7
		c0.4,0,0.6,0.2,0.6,0.7L41.8,12.6L41.8,12.6z M41.7,39.7c0,0.3-0.1,0.5-0.2,0.7s-0.4,0.2-0.7,0.2h-3c-0.3,0-0.5-0.1-0.6-0.2
		c-0.1-0.1-0.2-0.3-0.2-0.6V17.9c0-0.4,0.2-0.7,0.6-0.7h3.5c0.4,0,0.5,0.2,0.5,0.6v21.9H41.7z"></path><path d="M52.4,34.1c0.6,1.1,1.5,1.9,2.6,2.6c1.1,0.6,2.3,0.9,3.6,0.9s2.6-0.3,3.6-0.8c1.1-0.6,2-1.4,2.9-2.6
		c0.1-0.1,0.2-0.2,0.3-0.2s0.2,0,0.4,0.1l2.2,1.1c0.3,0.1,0.4,0.4,0.1,0.7c-0.8,1.2-1.7,2.2-2.7,2.9c-1,0.8-2.1,1.3-3.3,1.7
		s-2.5,0.5-4,0.5c-2.2,0-4.2-0.5-5.9-1.5s-3-2.4-4-4.2c-1-1.8-1.5-3.8-1.5-6.2c0-2.6,0.5-4.7,1.5-6.6c1-1.8,2.4-3.3,4.1-4.3
		c1.7-1,3.6-1.5,5.7-1.5c2.2,0,4.1,0.5,5.7,1.4c1.6,1,2.9,2.3,3.8,4.1c0.9,1.8,1.4,4,1.4,6.5c0,0.3,0,0.5-0.1,0.7s-0.2,0.3-0.6,0.3
		H51.9c-0.1,0-0.3,0.1-0.3,0.2c-0.1,0.1-0.1,0.3-0.1,0.5C51.5,31.8,51.8,33,52.4,34.1z M63.5,27c0.3,0,0.5,0,0.6-0.1
		s0.1-0.2,0.1-0.5c0-1.1-0.2-2.2-0.7-3.2s-1.2-1.8-2.1-2.4c-0.9-0.6-2-0.9-3.3-0.9c-1.4,0-2.6,0.3-3.5,1c-1,0.7-1.7,1.5-2.2,2.6
		s-0.8,2.2-0.8,3.5H63.5z"></path><path d="M80.3,20.6c-0.3,0-0.4,0.1-0.4,0.4v12.9c0,1.3,0.2,2.1,0.7,2.6s1.2,0.7,2.2,0.7h2.8c0.2,0,0.3,0.1,0.4,0.2
		c0.1,0.1,0.1,0.2,0.1,0.4v1.9c0,0.4-0.2,0.6-0.7,0.7c-0.4,0.1-0.9,0.1-1.4,0.1c-0.6,0-1.1,0.1-1.7,0.1c-0.5,0-1,0-1.4,0
		c-1.9,0-3.3-0.4-4.3-1.3s-1.4-2.3-1.4-4.2v-14c0-0.4-0.1-0.5-0.4-0.5h-3.3c-0.4,0-0.6-0.2-0.6-0.5v-2.4c0-0.3,0.2-0.5,0.5-0.5h3.5
		c0.2,0,0.4-0.1,0.4-0.4l0.5-6.9c0-0.4,0.2-0.6,0.5-0.6h3c0.4,0,0.6,0.2,0.6,0.7v6.8c0,0.3,0.1,0.4,0.4,0.4h5.3
		c0.4,0,0.5,0.2,0.5,0.5V20c0,0.4-0.2,0.5-0.6,0.5h-5.2V20.6z"></path><path d="M94.5,34.1c0.6,1.1,1.5,1.9,2.6,2.6c1.1,0.6,2.3,0.9,3.6,0.9c1.3,0,2.6-0.3,3.6-0.8c1.1-0.6,2-1.4,2.9-2.6
		c0.1-0.1,0.2-0.2,0.3-0.2c0.1,0,0.2,0,0.4,0.1l2.2,1.1c0.3,0.1,0.4,0.4,0.1,0.7c-0.8,1.2-1.7,2.2-2.7,2.9c-1,0.8-2.1,1.3-3.3,1.7
		c-1.2,0.4-2.5,0.5-4,0.5c-2.2,0-4.2-0.5-5.9-1.5c-1.7-1-3-2.4-4-4.2c-1-1.8-1.5-3.8-1.5-6.2c0-2.6,0.5-4.7,1.5-6.6
		c1-1.8,2.4-3.3,4.1-4.3s3.6-1.5,5.7-1.5c2.2,0,4.1,0.5,5.7,1.4c1.6,1,2.9,2.3,3.8,4.1s1.4,4,1.4,6.5c0,0.3,0,0.5-0.1,0.7
		s-0.2,0.3-0.6,0.3H94c-0.1,0-0.3,0.1-0.3,0.2c-0.1,0.1-0.1,0.3-0.1,0.5C93.6,31.8,93.9,33,94.5,34.1z M105.6,27
		c0.3,0,0.5,0,0.6-0.1s0.1-0.2,0.1-0.5c0-1.1-0.2-2.2-0.7-3.2s-1.2-1.8-2.1-2.4s-2-0.9-3.3-0.9c-1.4,0-2.6,0.3-3.5,1
		c-1,0.7-1.7,1.5-2.2,2.6s-0.8,2.2-0.8,3.5H105.6z"></path><path d="M115.8,40.4c-0.1-0.1-0.2-0.3-0.2-0.5v-22c0-0.4,0.2-0.7,0.6-0.7h3.4c0.4,0,0.5,0.2,0.5,0.6v2.8c0,0.2,0.1,0.3,0.2,0.3
		s0.2,0,0.3-0.2c0.7-0.9,1.5-1.6,2.2-2.2s1.5-1,2.3-1.3c0.8-0.3,1.5-0.4,2.3-0.4c1,0,1.5,0.2,1.5,0.6v3.4c0,0.4-0.2,0.5-0.5,0.4
		c-0.4-0.1-0.7-0.1-1.1-0.2c-0.4,0-0.8,0-1.2,0c-0.6,0-1.3,0.1-1.9,0.4c-0.7,0.3-1.3,0.6-1.9,1.1s-1,1-1.4,1.5
		c-0.4,0.6-0.6,1.1-0.6,1.7v14c0,0.5-0.3,0.7-0.8,0.7h-3.1C116.1,40.5,115.9,40.5,115.8,40.4z"></path></g><path fill="var(--gtr-primary)" d="M32.5,23.8c-0.1-0.1-0.2-0.1-0.3,0c-3.5,3.6-3.4,8.9,0.1,8.9S35.9,27.4,32.5,23.8z"></path></svg>