<?xml version="1.0" encoding="utf-8"?>
<!-- Generator: Adobe Illustrator 25.0.1, SVG Export Plug-In . SVG Version: 6.00 Build 0)  -->
<svg version="1.1" id="Layer_1" xmlns="http://www.w3.org/2000/svg" xmlns:xlink="http://www.w3.org/1999/xlink" x="0px" y="0px"
	 viewBox="0 0 301.27 48.08" style="enable-background:new 0 0 301.27 48.08;" xml:space="preserve">
<path d="M61.71,48.08v-37.5h6.32v4.51h0.37c0.33-0.66,0.8-1.37,1.4-2.12c0.6-0.75,1.42-1.4,2.45-1.94s2.34-0.81,3.94-0.81
	c2.11,0,4.01,0.54,5.71,1.61s3.05,2.65,4.05,4.74c1,2.09,1.5,4.65,1.5,7.68c0,3-0.49,5.54-1.47,7.64c-0.98,2.1-2.32,3.69-4.01,4.79
	c-1.69,1.1-3.61,1.65-5.75,1.65c-1.56,0-2.86-0.26-3.89-0.78c-1.03-0.52-1.86-1.15-2.48-1.89c-0.62-0.74-1.1-1.44-1.45-2.1h-0.27
	v14.52H61.71z M68.02,24.22c0,1.76,0.25,3.31,0.75,4.63s1.23,2.36,2.18,3.1c0.95,0.74,2.11,1.11,3.47,1.11
	c1.42,0,2.61-0.38,3.57-1.15c0.96-0.76,1.68-1.81,2.18-3.14c0.49-1.33,0.74-2.85,0.74-4.55c0-1.69-0.24-3.2-0.73-4.51
	s-1.21-2.34-2.17-3.09c-0.96-0.75-2.15-1.12-3.59-1.12c-1.37,0-2.54,0.36-3.5,1.08c-0.96,0.72-1.68,1.73-2.17,3.04
	S68.02,22.46,68.02,24.22z"/>
<path d="M105.02,38.39c-2.73,0-5.09-0.57-7.08-1.71c-1.98-1.14-3.51-2.76-4.57-4.87c-1.06-2.1-1.6-4.58-1.6-7.43
	c0-2.81,0.54-5.27,1.61-7.4c1.07-2.12,2.57-3.78,4.5-4.97c1.93-1.19,4.2-1.78,6.8-1.78c1.68,0,3.27,0.27,4.77,0.81
	c1.5,0.54,2.82,1.37,3.98,2.49s2.06,2.55,2.73,4.29c0.66,1.73,0.99,3.8,0.99,6.19v1.97H94.79v-4.33h16.19
	c-0.01-1.23-0.28-2.33-0.8-3.29c-0.52-0.96-1.25-1.73-2.18-2.28c-0.93-0.56-2.01-0.83-3.24-0.83c-1.31,0-2.47,0.32-3.46,0.95
	c-0.99,0.63-1.77,1.46-2.32,2.49c-0.55,1.02-0.83,2.15-0.84,3.36v3.78c0,1.59,0.29,2.94,0.87,4.08s1.39,1.99,2.43,2.59
	c1.04,0.6,2.26,0.9,3.66,0.9c0.94,0,1.78-0.13,2.54-0.4c0.76-0.27,1.41-0.66,1.97-1.18c0.56-0.52,0.98-1.17,1.26-1.94l6,0.67
	c-0.38,1.59-1.1,2.97-2.16,4.15c-1.06,1.18-2.41,2.09-4.06,2.73C109.02,38.06,107.14,38.39,105.02,38.39z"/>
<path d="M129.01,21.88v15.98h-6.43V10.58h6.14v4.63h0.32c0.63-1.53,1.63-2.74,3.01-3.64c1.38-0.9,3.09-1.35,5.12-1.35
	c1.88,0,3.52,0.4,4.93,1.21c1.4,0.81,2.49,1.97,3.27,3.5c0.78,1.53,1.16,3.38,1.15,5.56v17.37h-6.43V21.48
	c0-1.82-0.47-3.25-1.41-4.28c-0.94-1.03-2.24-1.54-3.9-1.54c-1.12,0-2.12,0.25-2.99,0.74s-1.55,1.2-2.04,2.12
	S129.01,20.56,129.01,21.88z"/>
<path d="M171.9,0v37.85h-6.43V0H171.9z"/>
<path d="M190.58,38.39c-2.73,0-5.09-0.57-7.08-1.71c-1.98-1.14-3.51-2.76-4.57-4.87c-1.06-2.1-1.6-4.58-1.6-7.43
	c0-2.81,0.54-5.27,1.61-7.4c1.07-2.12,2.57-3.78,4.5-4.97c1.93-1.19,4.2-1.78,6.8-1.78c1.68,0,3.27,0.27,4.77,0.81
	c1.5,0.54,2.82,1.37,3.98,2.49s2.06,2.55,2.73,4.29c0.66,1.73,0.99,3.8,0.99,6.19v1.97h-22.35v-4.33h16.19
	c-0.01-1.23-0.28-2.33-0.8-3.29c-0.52-0.96-1.25-1.73-2.18-2.28c-0.93-0.56-2.01-0.83-3.24-0.83c-1.31,0-2.47,0.32-3.46,0.95
	c-0.99,0.63-1.77,1.46-2.32,2.49c-0.55,1.02-0.83,2.15-0.84,3.36v3.78c0,1.59,0.29,2.94,0.87,4.08s1.39,1.99,2.43,2.59
	c1.04,0.6,2.26,0.9,3.66,0.9c0.94,0,1.78-0.13,2.54-0.4c0.76-0.27,1.41-0.66,1.97-1.18c0.56-0.52,0.98-1.17,1.26-1.94l6,0.67
	c-0.38,1.59-1.1,2.97-2.16,4.15c-1.06,1.18-2.41,2.09-4.06,2.73C194.59,38.06,192.7,38.39,190.58,38.39z"/>
<path d="M225.08,10.58v4.97h-19v-4.97H225.08z M209.96,4.05h6.43v25.6c0,0.86,0.13,1.52,0.4,1.98c0.27,0.46,0.62,0.77,1.06,0.93
	c0.44,0.17,0.92,0.25,1.46,0.25c0.4,0,0.77-0.03,1.11-0.09s0.59-0.11,0.77-0.16l1.08,5.02c-0.34,0.12-0.83,0.25-1.46,0.39
	c-0.63,0.14-1.41,0.22-2.32,0.25c-1.61,0.05-3.06-0.2-4.35-0.74c-1.29-0.54-2.31-1.38-3.06-2.51c-0.75-1.14-1.12-2.56-1.11-4.26
	V4.05z"/>
<path d="M240.76,10.58v4.97h-15.68v-4.97H240.76z M228.95,4.05h6.43v25.6c0,0.86,0.13,1.52,0.4,1.98c0.27,0.46,0.62,0.77,1.06,0.93
	c0.44,0.17,0.92,0.25,1.46,0.25c0.4,0,0.77-0.03,1.11-0.09s0.59-0.11,0.77-0.16l1.08,5.02c-0.34,0.12-0.83,0.25-1.46,0.39
	c-0.63,0.14-1.41,0.22-2.32,0.25c-1.61,0.05-3.06-0.2-4.35-0.74c-1.29-0.54-2.31-1.38-3.06-2.51c-0.75-1.14-1.12-2.56-1.11-4.26
	V4.05z"/>
<path d="M257.93,38.39c-2.73,0-5.09-0.57-7.08-1.71c-1.98-1.14-3.51-2.76-4.57-4.87c-1.06-2.1-1.6-4.58-1.6-7.43
	c0-2.81,0.54-5.27,1.61-7.4c1.07-2.12,2.57-3.78,4.5-4.97c1.93-1.19,4.2-1.78,6.8-1.78c1.68,0,3.27,0.27,4.77,0.81
	c1.5,0.54,2.82,1.37,3.98,2.49s2.06,2.55,2.73,4.29c0.66,1.73,0.99,3.8,0.99,6.19v1.97H247.7v-4.33h16.19
	c-0.01-1.23-0.28-2.33-0.8-3.29c-0.52-0.96-1.25-1.73-2.18-2.28c-0.93-0.56-2.01-0.83-3.24-0.83c-1.31,0-2.47,0.32-3.46,0.95
	c-0.99,0.63-1.77,1.46-2.32,2.49c-0.55,1.02-0.83,2.15-0.84,3.36v3.78c0,1.59,0.29,2.94,0.87,4.08s1.39,1.99,2.43,2.59
	c1.04,0.6,2.26,0.9,3.66,0.9c0.94,0,1.78-0.13,2.54-0.4c0.76-0.27,1.41-0.66,1.97-1.18c0.56-0.52,0.98-1.17,1.26-1.94l6,0.67
	c-0.38,1.59-1.1,2.97-2.16,4.15c-1.06,1.18-2.41,2.09-4.06,2.73C261.93,38.06,260.05,38.39,257.93,38.39z"/>
<path d="M275.49,37.85V10.58h6.23v4.55h0.28c0.5-1.57,1.35-2.79,2.57-3.65c1.21-0.86,2.6-1.29,4.16-1.29c0.36,0,0.75,0.02,1.2,0.04
	c0.44,0.03,0.81,0.07,1.11,0.13v5.91c-0.27-0.09-0.7-0.18-1.29-0.26c-0.59-0.08-1.15-0.12-1.7-0.12c-1.17,0-2.22,0.25-3.15,0.75
	c-0.93,0.5-1.66,1.2-2.19,2.09s-0.8,1.91-0.8,3.07v16.03H275.49z"/>
<path d="M54.68,16.92c-1.07-2.12-2.58-3.76-4.54-4.94s-4.26-1.76-6.92-1.76l0.04,5.1c1.44,0,2.65,0.4,3.62,1.21
	c0.97,0.81,1.7,1.89,2.18,3.24s0.72,2.87,0.72,4.54c0,1.66-0.24,3.16-0.72,4.51s-1.2,2.42-2.18,3.22s-2.18,1.2-3.62,1.2l-0.04,5.15
	c2.66,0,4.97-0.59,6.92-1.76s3.47-2.81,4.54-4.92c1.07-2.11,1.61-4.57,1.61-7.39C56.28,21.51,55.75,19.04,54.68,16.92z"/>
<path d="M11.98,31.67c1.07,2.12,2.58,3.76,4.54,4.94s4.26,1.76,6.92,1.76l-0.04-5.1c-1.44,0-2.65-0.4-3.62-1.21
	c-0.97-0.81-1.7-1.89-2.18-3.24s-0.72-2.87-0.72-4.54c0-1.66,0.24-3.16,0.72-4.51s1.2-2.42,2.18-3.22s2.18-1.2,3.62-1.2l0.04-5.15
	c-2.66,0-4.97,0.59-6.92,1.76s-3.47,2.81-4.54,4.92c-1.07,2.11-1.61,4.57-1.61,7.39C10.38,27.08,10.91,29.55,11.98,31.67z"/>
<rect x="23.44" y="10.2" width="19.8" height="5.12"/>
<rect x="23.44" y="33.26" width="19.8" height="5.12"/>
</svg>
