<?xml version="1.0" encoding="utf-8"?>
<svg version="1.1" id="Layer_1" xmlns="http://www.w3.org/2000/svg" xmlns:xlink="http://www.w3.org/1999/xlink" x="0px" y="0px"
	 viewBox="0 0 585.8 585.8" style="enable-background:new 0 0 585.8 585.8;" xml:space="preserve">
<path d="M481.9,266.9c-0.1-0.7-10.5-67.8-16-110v0c-6-45.4-102.1-74.8-106.2-76.1l-0.7-0.2h-13.3v5c0,16.7-24.1,30.8-52.7,30.8
	c-28.6,0-52.7-14.1-52.7-30.8v-5h-13.4l-0.7,0.2c-4.1,1.2-100.2,30.6-106.2,76.1c-5.5,42.2-15.9,109.3-16,110l-0.6,4l3.8,1.4
	c1.6,0.6,36.9,13.4,61.2,8.3c2.8,56.9,2.1,195.6,2.1,197.1c0,12,22,17.6,38.5,20.8c22.5,4.3,52.3,6.7,84,6.7s61.5-2.4,84-6.7
	c16.5-3.2,38.5-8.7,38.5-20.8c0-1.5-0.7-140.2,2.1-197.1c24.3,5.1,59.6-7.7,61.2-8.3l3.8-1.4L481.9,266.9z M114.5,264.3
	c2.4-15.4,10.7-69.8,15.4-106.1c2.1-15.7,19.6-32.4,50.6-48.1c10.7-5.5,21.4-9.9,30-13.2c-4.1,4.7-8.5,10.9-12.9,19.2
	c-22.5,42.3-27,105.9-26.6,153.5C154.3,275.9,124.9,267.6,114.5,264.3z M407.8,273.8c-3.1,51.9-2.4,199.3-2.4,203.9
	c-0.3,0.5-3.9,6.3-32.8,11.5c-21.6,3.9-49.9,6-79.7,6s-58.1-2.1-79.7-6c-28.8-5.2-32.5-11-32.8-11.5c0-5.1,0.7-152.1-2.4-203.9
	l-0.4-6.9c-1.3-85.6,10.8-124.7,23.2-148.4c6.8-13,13.7-20.7,18.5-24.9c4.5-1.6,7.7-2.6,9-3h2.4c3.7,20.4,29.7,35.8,62.3,35.8
	s58.6-15.4,62.3-35.8h2.2c1.3,0.4,4.6,1.5,9,3c4.7,4.2,11.6,11.9,18.5,24.9c22.6,42.9,23.9,101.1,23.2,148.4L407.8,273.8z
	 M414.9,269.5c0.4-47.6-4.1-111.2-26.6-153.5c-4.4-8.3-8.9-14.5-12.9-19.2c8.6,3.3,19.3,7.8,30,13.2c31,15.7,48.5,32.4,50.6,48.1
	c4.8,36.2,13.1,90.8,15.4,106.1C458,268.6,430.2,275.4,414.9,269.5z"/>
</svg>
