<?xml version="1.0" encoding="utf-8"?>
<svg version="1.1" id="Layer_1" xmlns="http://www.w3.org/2000/svg" xmlns:xlink="http://www.w3.org/1999/xlink" x="0px" y="0px"
	 viewBox="0 0 585.8 585.8" style="enable-background:new 0 0 585.8 585.8;" xml:space="preserve">
<path d="M527.4,247.9c-9-26.2-25.5-49.8-47.9-68.3c-21.3-17.6-48-30.6-77.4-37.7c0-4.4-1.5-8.7-4.6-12.4c-3.6-4.4-8.9-7.5-15-8.8
	c-6-1.3-12.2-0.5-17.3,2.1c-5.4,2.8-9.1,7.4-10.2,12.8c0,0,0,0,0,0c-21.2-0.7-43.1,1.2-65.2,5.7c-26.3,5.4-48.7,18.1-66.7,37.8
	c-14.4,15.7-25.9,35.9-34.3,60c-12.5,35.9-14.5,70.3-14.8,81.5c-32.4,12.8-58.9,24.9-78.9,35.9c-30.6,16.9-44.8,30.5-44.8,43
	c0,18.8,14.3,28.8,27.7,31.8c13.5,3.2,18,0.9,39.8-10.3c7.2-3.7,16-8.2,27.8-13.9c5.4,3.3,10.9,6.9,16.8,10.7
	c18.9,12.3,40.4,26.1,64.9,36.9c16.7,7.3,34.5,11,53.3,11c24.5,0,50.6-6.2,78.3-18.6c39-17.5,71.7-43.4,88.4-58l55.9-5.8l1.3-1.4
	c0.5-0.6,12.9-13.9,21.9-37.1C534.6,323.6,541.6,289.4,527.4,247.9z M369.8,131.6c3.1-1.6,6.8-2,10.7-1.2c3.8,0.8,7.1,2.7,9.3,5.4
	c1.7,2,2.5,4.3,2.3,6.4c-8.9-1.7-18-3-27.4-3.6c0-0.3,0-0.6,0.1-0.9C365.4,135.2,367.1,133,369.8,131.6z M389.9,149.4l5.5,1.2
	c29.6,6.5,56.5,19.2,77.7,36.7c20.9,17.3,36.4,39.4,44.8,63.8c10.5,30.8,10.3,61-0.8,89.8c-6.7,17.5-15.7,29.2-18.8,33l-55.3,5.7
	l-1.2,1.1c-0.3,0.3-0.6,0.5-0.9,0.8l-220-59.6h-37c0.4-19.2,7.1-150.1,107.9-170.7c23-4.7,45.8-6.5,67.7-5.3l6,0.3
	C372.3,146.7,383.4,148.3,389.9,149.4z M231.3,445.6c-23.7-10.4-44.9-24.1-63.5-36.1c-6.8-4.4-13.1-8.5-19.3-12.3l-2.3-1.4
	c-13.3-8.1-26.6-12.6-39.9-14c-1.8-0.2-3.6-0.3-5.3-0.3c-1,0-2,0-3,0.1l-0.1,0c-0.4,0-0.8,0.1-1.3,0.1c-3.1,0.2-6.8,0.6-10.8,1.4
	c-9.8,1.9-20.1,6.5-23.4,19.2c-0.1,0.5-0.2,0.9-0.3,1.4c0,0.1,0,0.3-0.1,0.4c0,0.3-0.1,0.7-0.1,1c0,0.2,0,0.3,0,0.5
	c0,0.4,0,0.7,0,1.1c0,0.1,0,0.2,0,0.3c0,0.5,0.1,0.9,0.2,1.4c0,0.1,0.1,0.2,0.1,0.3c0,0.1,0.1,0.2,0.1,0.3c-1.3-2.6-2.1-5.7-2.1-9.4
	c0-3.7,3.9-14.5,39.7-34.2c10.9-6,23.9-12.4,38.8-19.1c13-5.7,27.9-12,45.1-18.8l36.4-0.6l216.1,58.5
	c-17.2,14.6-46.9,37.1-81.6,52.7C308.5,458.8,267,461.3,231.3,445.6z M80.7,421.7c0,0-0.1-0.1-0.1-0.1c-0.2-0.1-0.3-0.2-0.5-0.3
	c-0.1-0.1-0.3-0.2-0.4-0.3c-0.2-0.1-0.4-0.2-0.5-0.3c-0.1-0.1-0.3-0.2-0.4-0.3c-0.2-0.1-0.4-0.2-0.5-0.4c-0.1-0.1-0.3-0.2-0.4-0.3
	c-0.2-0.1-0.4-0.2-0.5-0.4c-0.1-0.1-0.2-0.2-0.4-0.3c-0.2-0.1-0.3-0.2-0.5-0.4c-0.1-0.1-0.2-0.2-0.4-0.3c-0.2-0.1-0.3-0.3-0.5-0.4
	c-0.1-0.1-0.2-0.2-0.4-0.3c-0.2-0.1-0.3-0.3-0.5-0.4c-0.1-0.1-0.2-0.2-0.3-0.3c-0.2-0.1-0.3-0.3-0.5-0.4c-0.1-0.1-0.2-0.2-0.3-0.3
	c-0.1-0.1-0.3-0.3-0.4-0.4c-0.1-0.1-0.2-0.2-0.3-0.3c-0.1-0.1-0.3-0.3-0.4-0.4c-0.1-0.1-0.2-0.2-0.3-0.3c-0.1-0.1-0.3-0.3-0.4-0.4
	c-0.1-0.1-0.2-0.2-0.3-0.3c-0.1-0.1-0.2-0.3-0.4-0.4c-0.1-0.1-0.2-0.2-0.3-0.3c-0.1-0.1-0.2-0.3-0.3-0.4c-0.1-0.1-0.2-0.2-0.3-0.3
	c-0.1-0.1-0.2-0.3-0.3-0.4c-0.1-0.1-0.2-0.2-0.3-0.4c-0.1-0.1-0.2-0.3-0.3-0.4c-0.1-0.1-0.2-0.2-0.2-0.4c-0.1-0.1-0.2-0.2-0.2-0.4
	c-0.1-0.1-0.1-0.2-0.2-0.4c-0.1-0.1-0.2-0.3-0.2-0.4c-0.1-0.1-0.1-0.2-0.2-0.4c-0.1-0.1-0.1-0.3-0.2-0.4c-0.1-0.1-0.1-0.3-0.2-0.4
	c-0.1-0.1-0.1-0.2-0.2-0.4c-0.1-0.1-0.1-0.3-0.1-0.4c0-0.1-0.1-0.2-0.1-0.4c0-0.1-0.1-0.3-0.1-0.4c0-0.1-0.1-0.2-0.1-0.3
	c0-0.1-0.1-0.3-0.1-0.4c0-0.1,0-0.2-0.1-0.3c0-0.2,0-0.3,0-0.5c0-0.1,0-0.2,0-0.3c0-0.2,0-0.3,0-0.5c0-0.1,0-0.2,0-0.3
	c0-0.2,0-0.4,0.1-0.5c0-0.1,0-0.2,0-0.2c0-0.3,0.1-0.5,0.2-0.8c0.1-0.5,0.3-0.9,0.4-1.3c0-0.1,0.1-0.2,0.1-0.3
	c0.1-0.3,0.2-0.7,0.4-1c0-0.1,0.1-0.2,0.1-0.3c0.1-0.3,0.3-0.6,0.4-0.9c0-0.1,0.1-0.1,0.1-0.2c0.2-0.3,0.3-0.6,0.5-0.9
	c0-0.1,0.1-0.1,0.1-0.1c0.2-0.3,0.4-0.6,0.6-0.9c0,0,0.1-0.1,0.1-0.1c0.2-0.3,0.4-0.6,0.6-0.9c0,0,0.1-0.1,0.1-0.1
	c0.2-0.3,0.4-0.5,0.6-0.8c0-0.1,0.1-0.1,0.1-0.2c0.2-0.2,0.4-0.4,0.6-0.6c0.1-0.1,0.2-0.2,0.2-0.2c0.2-0.2,0.3-0.3,0.5-0.5
	c0.1-0.1,0.3-0.2,0.4-0.4c0.1-0.1,0.2-0.1,0.2-0.2c6-5,15.1-6.3,24.2-7c1.9-0.1,4-0.1,6.1,0c0.3,0,0.6,0.1,1,0.1
	c0.3,0,0.5,0.1,0.8,0.1c0.4,0.1,0.8,0.1,1.3,0.2c0.2,0,0.4,0.1,0.6,0.1c0.5,0.1,0.9,0.2,1.4,0.3c0.1,0,0.3,0.1,0.4,0.1
	c1.7,0.4,3.4,0.8,5.1,1.3c0.1,0,0.1,0,0.2,0.1c0.6,0.2,1.2,0.4,1.8,0.6c0,0,0.1,0,0.1,0c6.8,2.3,14,6,21.6,10.3
	c-10.3,5-18.2,9.1-24.8,12.4C92.1,422.9,90,423.8,80.7,421.7z"/>
</svg>
