<?xml version="1.0" encoding="utf-8"?>
<svg version="1.1" id="Layer_1" xmlns="http://www.w3.org/2000/svg" xmlns:xlink="http://www.w3.org/1999/xlink" x="0px" y="0px"
	 viewBox="0 0 585.8 585.8" style="enable-background:new 0 0 585.8 585.8;" xml:space="preserve">
<path d="M424.9,77.7l-0.4-1.5l-1.2-1c-17.5-14.7-56.5-21-130.4-21c-73.9,0-112.9,6.3-130.4,21l-1.2,1l-0.4,1.5
	c-21.4,78.1-7.5,316-1.6,417.5c0.6,10.4,1.1,19,1.5,25.6l0.2,3.2l2.9,1.2c14.6,5.9,33.1,7.7,55.1,5.4c16.1-1.7,28-5.1,28.5-5.2
	l3-0.9l0.5-3.1c0.1-0.5,8.3-49.9,20.8-145.4c9-68.8,18.3-84.4,21.2-87.7c2.9,3.3,12.2,18.9,21.2,87.7
	c12.5,95.5,20.7,144.9,20.8,145.4l0.5,3.1l3,0.9c0.5,0.1,12.3,3.5,28.5,5.2c6.2,0.7,12.1,1,17.7,1c14.4,0,26.9-2.1,37.4-6.4l2.9-1.2
	l0.2-3.2c0.4-6.6,0.9-15.2,1.5-25.6C432.5,393.7,446.3,155.9,424.9,77.7z M317.1,208.5c0.7,31.9-16.1,38.6-22.2,40V139.3
	c0,0,0,0,0,0c4.1,0,12-0.1,22.1-0.4C316.9,145.2,316.3,173.1,317.1,208.5z M295,135.3c-55.2,0-114.7-6.7-130.4-21.2
	c1.1-9.5,2.5-18.1,4.1-25.5c7.2,6.9,22.4,11.8,46,14.6c26.4,3.2,57.7,3.2,78.4,3.2s52,0,78.4-3.2c23.5-2.8,38.7-7.6,46-14.6
	c1.6,7.6,3,16.3,4.1,26.1c-5.9,5.3-19,11-46,15.2C342.9,134.9,305.6,135.3,295,135.3z M292.9,64.2c67.7,0,106.8,5.6,122.8,17.7
	c0.2,0.6,0.3,1.2,0.5,1.8c-13.3,18.5-89.3,18.5-123.2,18.5c-33.9,0-109.9,0-123.2-18.5c0.2-0.6,0.3-1.2,0.5-1.8
	C186.1,69.8,225.2,64.2,292.9,64.2z M261.8,374.7c-10.7,81.6-18.2,129.5-20.2,141.8c-10.3,2.5-44.7,9.6-71,0.5
	c-0.3-6.1-0.8-13.6-1.3-22.4c-4.7-80.2-16-275.7-5.3-375.9c24.4,18.2,101.8,20.3,126.9,20.5V278c-0.8,0.2-1.7,0.6-2.6,1.2
	C278.1,285.8,269.2,318,261.8,374.7z M416.6,494.7c-0.5,8.7-0.9,16.3-1.3,22.4c-26.3,9.2-60.8,2-71-0.5c-2-12.3-9.5-60.2-20.2-141.8
	c-7.4-56.8-16.3-88.9-26.5-95.6c-0.9-0.6-1.8-1-2.6-1.2v-25.5c6.4-1.3,26.9-8.4,26.2-44.1c-0.8-35.8-0.2-63.9,0-69.7
	c15.9-0.6,36.2-2,54.9-4.9c22.1-3.4,37.4-8.3,45.9-14.5C432.6,219.7,421.2,414.6,416.6,494.7z"/>
</svg>
