<?xml version="1.0" encoding="utf-8"?>
<svg viewBox="0 0 239.3 75.6" style="enable-background:new 0 0 239.3 75.6;" xml:space="preserve">
<path d="M-237.6-1009.6v-32c0-2.2-1.8-4-4-4h-28c-2.2,0-4,1.8-4,4v32v32c0,2.2,1.8,4,4,4h32h32c2.2,0,4-1.8,4-4v-28c0-2.2-1.8-4-4-4
	H-237.6z"/>
<g>
	<path d="M-93.6-1045.6h-17.6c-2.2,0-4,1.8-4,4v28c0,2.2,1.8,4,4,4h17.6v32c0,2.2,1.8,4,4,4h28c2.2,0,4-1.8,4-4v-32H-40
		c2.2,0,4-1.8,4-4v-28c0-2.2-1.8-4-4-4h-17.6H-93.6z"/>
</g>
<path d="M-158.4-1124.8h-32c-2.2,0-4,1.8-4,4v64c0,2.2,1.8,4,4,4h28c2.2,0,4-1.8,4-4v-10.4c15.9,0,28.8-12.9,28.8-28.8
	C-129.6-1111.9-142.5-1124.8-158.4-1124.8z"/>
<path d="M193-996.2c5.4-5.3,8.8-12.8,8.6-21c-0.2-15.8-13.5-28.4-29.4-28.4h-31.4c-2.2,0-4,1.8-4,4v16.6l0,0v47.4c0,2.2,1.8,4,4,4
	h32l0,0h28.3c3.2,0,5.1-3.6,3.3-6.3L193-996.2z"/>
<path d="M-86.4-1124.8c-19.9,0-36,16.1-36,36s16.1,36,36,36s36-16.1,36-36S-66.5-1124.8-86.4-1124.8z M-81.6-1088.8h-9.6
	c-1.4,0-2.4-1.5-1.8-2.8c1.1-2.6,3.7-4.4,6.6-4.4c3,0,5.6,1.8,6.6,4.4C-79.2-1090.3-80.2-1088.8-81.6-1088.8z"/>
<path d="M119.1-1035.1c-14.1-14.1-36.9-14.1-50.9,0c-14.1,14.1-14.1,36.9,0,50.9s36.9,14.1,50.9,0
	C133.1-998.2,133.1-1021,119.1-1035.1z M97-1006.2l-6.8-6.8c-1-1-0.7-2.7,0.7-3.3c2.6-1.1,5.7-0.5,7.8,1.6c2.1,2.1,2.6,5.2,1.6,7.8
	C99.7-1005.5,98-1005.2,97-1006.2z"/>
<path d="M-183.9-1035.1c-14.1,14.1-14.1,36.9,0,50.9c14.1,14.1,36.9,14.1,50.9,0s14.1-36.9,0-50.9
	C-147-1049.1-169.8-1049.1-183.9-1035.1z M-155-1013l-6.8,6.8c-1,1-2.7,0.7-3.3-0.7c-1.1-2.6-0.5-5.7,1.6-7.8s5.2-2.6,7.8-1.6
	C-154.3-1015.7-154-1014-155-1013z"/>
<path d="M-237.6-1124.8c-19.9,0-36,16.1-36,36s16.1,36,36,36s36-16.1,36-36S-217.7-1124.8-237.6-1124.8z M-237.6-1081.6
	c-4,0-7.2-3.2-7.2-7.2l0,0c0-4,3.2-7.2,7.2-7.2s7.2,3.2,7.2,7.2l0,0C-230.4-1084.8-233.6-1081.6-237.6-1081.6z"/>
<path d="M32-1124.8H4c-2.2,0-4,1.8-4,4v8l-4.9-8.1c-1.4-2.4-4-3.9-6.9-3.9h-9.9h-17.6c-2.2,0-4,1.8-4,4v64c0,2.2,1.8,4,4,4h28
	c2.2,0,4-1.8,4-4v-8l4.9,8.1c1.4,2.4,4,3.9,6.9,3.9h9.9H32c2.2,0,4-1.8,4-4v-64C36-1123,34.2-1124.8,32-1124.8z"/>
<g>
	<path d="M-7.2-1045.6h-17.6c-2.2,0-4,1.8-4,4v28c0,2.2,1.8,4,4,4h17.6v32c0,2.2,1.8,4,4,4h28c2.2,0,4-1.8,4-4v-32h17.6
		c2.2,0,4-1.8,4-4v-28c0-2.2-1.8-4-4-4H28.8H-7.2z"/>
</g>
<g>
	<path d="M18,57.6v-16c0-1.1-0.9-2-2-2H2c-1.1,0-2,0.9-2,2v16v16c0,1.1,0.9,2,2,2h16h16c1.1,0,2-0.9,2-2v-14c0-1.1-0.9-2-2-2H18z"/>
	<g>
		<path d="M90,39.6h-8.8c-1.1,0-2,0.9-2,2v14c0,1.1,0.9,2,2,2H90v16c0,1.1,0.9,2,2,2h14c1.1,0,2-0.9,2-2v-16h8.8c1.1,0,2-0.9,2-2
			v-14c0-1.1-0.9-2-2-2H108H90z"/>
	</g>
	<path d="M57.6,0h-16c-1.1,0-2,0.9-2,2v32c0,1.1,0.9,2,2,2h14c1.1,0,2-0.9,2-2v-5.2c7.9,0,14.4-6.5,14.4-14.4C72,6.5,65.6,0,57.6,0z
		"/>
	<path d="M233.3,64.3c2.7-2.6,4.4-6.4,4.3-10.5c-0.1-7.9-6.8-14.2-14.7-14.2h-15.7c-1.1,0-2,0.9-2,2v8.3l0,0v23.7c0,1.1,0.9,2,2,2
		h16l0,0h14.1c1.6,0,2.6-1.8,1.7-3.1L233.3,64.3z"/>
	<path d="M75.6,18c0,10,8,18,18,18s18-8,18-18s-8-18-18-18S75.6,8,75.6,18z M95.3,16.3l-3.4,3.4c-0.5,0.5-1.4,0.3-1.6-0.4
		c-0.5-1.3-0.2-2.9,0.8-3.9c1.1-1.1,2.6-1.3,3.9-0.8C95.6,14.9,95.8,15.8,95.3,16.3z"/>
	<path d="M170.9,44.8c-7,7-7,18.5,0,25.4c7,7.1,18.5,7.1,25.5,0c7-7,7-18.4,0-25.4C189.3,37.8,177.9,37.8,170.9,44.8z M185.3,55.9
		l-3.4,3.4c-0.5,0.5-1.4,0.3-1.6-0.3c-0.5-1.3-0.2-2.8,0.8-3.9c1-1,2.6-1.3,3.9-0.8C185.7,54.5,185.8,55.4,185.3,55.9z"/>
	<path d="M44.9,44.9c-7.1,7-7.1,18.5,0,25.5c7.1,7,18.4,7,25.4,0s7.1-18.5,0-25.5C63.3,37.9,51.9,37.9,44.9,44.9z M59.3,55.9
		l-3.4,3.4c-0.5,0.5-1.3,0.4-1.7-0.4c-0.6-1.3-0.2-2.9,0.8-3.9s2.6-1.3,3.9-0.8C59.7,54.6,59.8,55.4,59.3,55.9z"/>
	<path d="M18,0C8.1,0,0,8,0,18s8.1,18,18,18s18-8,18-18S28,0,18,0z M18,21.6c-2,0-3.6-1.6-3.6-3.6l0,0c0-2,1.6-3.6,3.6-3.6
		s3.6,1.6,3.6,3.6l0,0C21.6,20,20,21.6,18,21.6z"/>
	<path d="M152.8,0h-14c-1.1,0-2,0.9-2,2v4l-2.4-4c-0.7-1.2-2-2-3.4-2h-5h-8.8c-1.1,0-2,0.9-2,2v32c0,1.1,0.9,2,2,2h14
		c1.1,0,2-0.9,2-2v-4l2.5,4c0.7,1.2,2,2,3.4,2h4.9h8.8c1.1,0,2-0.9,2-2V2C154.8,0.9,153.9,0,152.8,0z"/>
	<g>
		<path d="M133.2,39.6h-8.8c-1.1,0-2,0.9-2,2v14c0,1.1,0.9,2,2,2h8.8v16c0,1.1,0.9,2,2,2h14c1.1,0,2-0.9,2-2v-16h8.8
			c1.1,0,2-0.9,2-2v-14c0-1.1-0.9-2-2-2h-8.8H133.2z"/>
	</g>
</g>
</svg>
